<svg width="158" height="30" viewBox="0 0 158 30" fill="none" xmlns="http://www.w3.org/2000/svg">
<path d="M19.4059 11.0974V18.2919C20.3916 17.761 21.0576 16.8583 21.4039 15.823L21.4838 15.8495C21.2707 18.4247 19.5125 20.9733 16.7686 20.9733C14.0246 20.9733 12 18.9291 12 15.6637C12 13.2212 13.5984 11.6815 15.6497 10.3009C15.3566 10.2213 15.037 10.1948 14.7439 10.1948C13.332 10.1948 12.5062 11.1505 12.5062 12.1328H12.3996C12.373 12 12.373 11.8673 12.373 11.7345C12.373 10.0089 13.2787 7.91162 15.5165 7.91162C16.9284 7.91162 18.0206 9.21247 19.699 9.21247C20.365 9.21247 21.1908 8.8939 21.5105 8.1771H21.5638C21.5371 9.42486 21.1642 10.7257 19.4059 11.0974ZM20.4715 18.4512C19.4858 19.4866 18.4469 20.3627 17.0882 20.3627C14.5574 20.3627 12.6127 18.3716 12.6127 15.5044C12.6127 13.8053 13.3054 12.9027 14.1046 11.8407H14.0246C13.5451 12.3186 12.2398 13.5398 12.2398 15.6371C12.2398 18.8229 14.2378 20.7875 16.8751 20.7875C18.7133 20.7875 19.9654 19.5132 20.5248 18.5043L20.4715 18.4512ZM21.2441 9.02664C20.9244 9.63725 20.2051 10.4337 18.7932 10.4337C17.3813 10.4337 16.0493 9.45141 14.9038 9.45141C13.8382 9.45141 13.1189 10.1417 12.8525 10.6726L12.8791 10.6992C13.2521 10.3275 13.8115 9.95582 14.7439 9.95582C16.2624 9.95582 17.2481 10.885 18.7932 10.885C20.4449 10.885 21.1642 9.82308 21.2974 9.00009L21.2441 9.02664ZM15.8362 10.3806C14.8505 11.416 13.9181 12.531 13.9181 14.7345C13.9181 15.9292 14.3177 17.1769 15.2501 17.9734L15.8095 17.6813V12.4779L15.2767 12.7434L15.1702 12.5575L17.9141 11.0708C17.1682 10.885 16.5022 10.5664 15.8362 10.3806ZM19.1928 11.1239C19.0596 11.1505 18.9264 11.1505 18.7666 11.1505C18.5002 11.1505 18.2338 11.1239 17.994 11.0708V16.7521L15.4366 18.1327C15.9694 18.5309 16.6087 18.7433 17.4346 18.7433C18.1006 18.7433 18.6866 18.6105 19.2194 18.3716L19.1928 11.1239ZM16.3956 12.1328L16.0226 12.3452V17.5486L16.3956 17.3628V12.1328ZM27.611 12.8496V19.5662C27.611 21.4246 25.9594 22.6989 24.0946 23.0706L24.0679 22.991C24.9737 22.5396 25.5065 21.637 25.5065 20.6547V13.6991L24.4409 12.7434L24.0413 13.1947V18.6105L24.6274 19.1415V19.168L23.0556 20.8671L21.2441 19.2211V19.1415L21.9367 18.3981V9.79653L24.0146 7.59304L24.0413 7.61959V12.8761L25.7462 11.0443L27.5311 12.6372L27.8508 12.2921L28.0106 12.4248L27.611 12.8496ZM22.1498 19.2211V19.1946L22.5494 18.7964V9.53105L22.1498 9.95582V18.584L21.5371 19.1946V19.2211L23.0556 20.5751L23.322 20.2565L22.1498 19.2211ZM26.1192 13.4071L24.8405 12.3186L24.5741 12.6106L25.693 13.6195V20.6282C25.693 21.106 25.5864 21.5839 25.4266 21.8494L25.4532 21.8759C25.9327 21.5308 26.1192 20.9998 26.1192 20.3096V13.4071ZM30.7013 16.7787V17.761L32.5927 19.2477L33.685 18.0796L33.8448 18.2388L31.314 20.9468L28.7299 18.876L28.3303 19.2742L28.1705 19.1149L28.6234 18.6371V13.7257L32.2997 11.0443L34.2444 14.1504L30.7013 16.7787ZM29.2627 18.4778V13.5398L28.8631 13.8319V18.6636L31.2874 20.6282L31.607 20.3096L29.2627 18.4778ZM30.7546 12.5044L30.7279 12.531V16.5132L32.4595 15.2389L30.7546 12.5044ZM31.2607 12.1062L30.9144 12.3717L32.6194 15.1062L32.9657 14.8407L31.2607 12.1062ZM46.9783 20.9202L44.261 18.584L42.1831 20.9202L39.3859 18.5043V14.6814H38.8265C38.347 14.6814 38.0806 15 37.974 15.3716H37.9207C37.8674 15.1327 37.8142 14.8938 37.8142 14.6283C37.8142 14.1239 37.9474 12.7965 39.3859 12.7965V9.45141C39.3859 8.81425 38.6134 8.54877 38.6134 7.69923C38.6134 6.58421 39.679 5.49573 41.597 4.83203L41.677 4.88513C40.9843 5.28335 40.6114 5.68157 40.6114 6.53111C40.6114 7.80543 41.8634 7.48685 41.8634 9.50451V10.2744L44.1545 7.88507L46.5521 10.2479L48.8165 7.88507L51.001 10.0355V17.23L46.9783 20.9202ZM40.0253 18.1857V14.0708H38.933C38.3736 14.0708 38.1072 14.4425 38.0806 14.761L38.1072 14.7876C38.2937 14.5752 38.5068 14.469 38.933 14.469H39.6257V18.3981L42.2098 20.6282L42.5028 20.283L40.0253 18.1857ZM40.0253 9.26557C40.0253 8.46913 39.3326 8.20365 39.3326 7.69923C39.3326 7.00898 39.599 6.42492 40.0253 5.86741L39.9986 5.84086C39.4126 6.29218 38.8798 7.00898 38.8798 7.69923C38.8798 8.38948 39.6523 8.73461 39.6523 9.34521V12.7965H40.0519V9.26557H40.0253ZM44.1278 11.2036L42.636 9.76999L41.8634 10.5664V17.4424L43.6483 18.9291L44.1278 18.3716V11.2036ZM44.7672 18.1592V10.9381L43.1155 9.29212L42.7958 9.6107L44.3676 11.0974V18.345L47.005 20.6282L47.3246 20.3361L44.7672 18.1592ZM48.5501 10.9647L47.3246 9.79653L46.632 10.5133V17.4424L48.5501 19.1149L48.5767 19.0884V10.9647H48.5501ZM49.1628 10.6726L47.7509 9.29212L47.4578 9.6107L48.7632 10.8585V18.9822L49.1628 18.584V10.6726ZM57.4478 20.9202L55.583 19.2477L53.9314 20.9202L51.9067 19.1415L51.6403 19.4335L51.4805 19.2742L51.8268 18.9025V13.6726L55.5031 11.0177L57.6077 12.6637L57.9806 12.2655L58.1405 12.4248L57.7142 12.8761V18.2654L58.7532 19.2211L59.0729 18.876L59.2327 19.0087L57.4478 20.9202ZM52.4662 18.7433V13.4867L52.0666 13.7788V18.9291L53.9314 20.6016L54.251 20.283L52.4662 18.7433ZM55.6097 13.646L54.0113 12.3983L53.958 12.4248V18.0796L55.29 19.2211L55.6097 18.9025V13.646ZM56.2224 18.9291V13.354L54.5707 12L54.1711 12.2655L55.8228 13.5398V19.0884L57.4745 20.5751L57.7675 20.2565L56.2224 18.9291ZM63.1488 14.5752H65.1468V18.7433L62.0566 20.9202C61.657 20.4423 61.0709 20.1238 60.3516 20.1238C59.7655 20.1238 59.286 20.3096 58.6733 20.8406L58.5667 20.814L61.2307 16.9645H59.579V13.354L62.8291 11.0974C63.2287 11.416 63.5218 11.5753 64.0279 11.5753C64.4275 11.5753 64.987 11.4956 65.4132 11.1505L65.4931 11.177L63.1488 14.5752ZM60.9643 19.5397C60.4049 19.5397 59.952 19.7255 59.5524 20.0176V20.0441C59.8721 19.9114 60.1651 19.8583 60.4582 19.8583C60.911 19.8583 61.6037 20.0707 62.0832 20.6282L62.5361 20.3096C62.1631 19.8848 61.7102 19.5397 60.9643 19.5397ZM63.0422 16.2743H61.95L59.659 19.5662L59.6856 19.5928C60.245 19.1946 60.8045 18.9025 61.4705 18.9025C62.0566 18.9025 62.6693 19.168 63.0422 19.6459L63.0689 19.6193V16.2743H63.0422ZM60.1918 16.2743V13.1416L59.7922 13.4336V16.699H61.3639L61.6836 16.2743H60.1918ZM64.2677 12.4779C63.8681 12.7699 63.6283 12.9292 62.9357 12.9292C62.5361 12.9292 62.0832 12.7434 61.7102 12.3717L61.6836 12.3983V15.2389H62.4295L64.2677 12.4779ZM63.3353 12.2921C62.989 12.2921 62.5361 12.1062 62.243 11.7345L61.7635 12.0531C62.1365 12.5044 62.4828 12.6903 63.0422 12.6903C63.3886 12.6903 63.8947 12.5841 64.4275 12.1328L64.4542 12.0797C64.0812 12.239 63.6816 12.2921 63.3353 12.2921ZM63.655 15.6371H62.3762L62.0832 16.0353H63.2287V19.8052L63.6283 19.5132V15.6371H63.655ZM71.8867 12.8496V19.5662C71.8867 21.4246 70.235 22.6989 68.3702 23.0706L68.3436 22.991C69.2494 22.5396 69.7822 21.637 69.7822 20.6547V13.6991L68.7166 12.7434L68.317 13.1947V18.6105L68.903 19.1415V19.168L67.3313 20.8671L65.5198 19.2211V19.1415L66.2124 18.3981V9.79653L68.2903 7.59304L68.317 7.61959V12.8761L70.0219 11.0443L71.8068 12.6372L72.1265 12.2921L72.2863 12.4248L71.8867 12.8496ZM66.4255 19.2211V19.1946L66.8251 18.7964V9.53105L66.4255 9.95582V18.584L65.8128 19.1946V19.2211L67.3313 20.5751L67.5977 20.2565L66.4255 19.2211ZM70.3949 13.4071L69.1162 12.3186L68.8498 12.6106L69.9686 13.6195V20.6282C69.9686 21.106 69.8621 21.5839 69.7022 21.8494L69.7289 21.8759C70.2084 21.5308 70.3949 20.9998 70.3949 20.3096V13.4071ZM75.4298 20.9202L73.7515 19.3804L73.3519 19.7786L73.1921 19.6193L73.645 19.1415V13.5133L72.8191 12.7434L72.4994 13.0885L72.3396 12.9292L74.0978 11.0177L75.6696 12.4248L76.0692 12L76.2557 12.1328L75.7762 12.6637V18.345L76.7086 19.2211L77.1348 18.7698L77.2946 18.9291L75.4298 20.9202ZM74.2843 19.0087V13.2212L73.272 12.2921L73.0056 12.6106L73.8847 13.4336V19.2211L75.4565 20.6282L75.7495 20.3096L74.2843 19.0087ZM74.8704 10.885L73.272 9.42486L74.7372 7.85852L76.3356 9.31867L74.8704 10.885ZM73.8581 9.10628L73.565 9.39831L74.8438 10.593L75.1368 10.2744L73.8581 9.10628ZM83.6882 20.9202L81.9833 19.3804V13.6991L80.9443 12.7699L80.3849 13.354V18.6105L80.9976 19.168V19.2477L79.3992 20.9202L77.5877 19.2742V19.2211L78.2803 18.4778V13.5664L77.3746 12.7434L77.0016 13.1416L76.8418 12.9823L78.6266 11.0443L80.4115 12.6106V13.0089L82.2763 11.0443L84.0079 12.6106L84.4075 12.2124L84.594 12.3717L84.1145 12.8496V18.3981L84.9936 19.2211L85.4198 18.7433L85.5797 18.9025L83.6882 20.9202ZM78.5201 19.2211V19.1946C78.5201 19.2211 78.9197 18.7964 78.9197 18.7964V13.2743L77.8008 12.2655L77.5344 12.5575L78.5201 13.4602V18.584L77.9074 19.1946V19.2211L79.3992 20.5751L79.7189 20.2565L78.5201 19.2211ZM82.596 19.0618V13.354L81.3972 12.2655L81.0775 12.5841L82.1964 13.5664V19.2477L83.6616 20.6016L83.9813 20.283L82.596 19.0618ZM89.1761 24.4246C88.5367 23.7343 88.0838 23.4423 87.4711 23.4423C86.8318 23.4423 86.0858 23.7078 85.3133 24.106L85.26 24.0529L87.9506 20.9468L86.0326 19.4335L85.6596 19.8317L85.4998 19.699L85.926 19.2211V13.6726L89.629 11.0177L91.7069 12.6637L92.0532 12.2655L92.213 12.4248L91.8134 12.8761V19.5397C91.8134 20.5485 92.3729 20.522 92.3729 21.2653C92.3995 22.1414 91.1474 22.9644 89.1761 24.4246ZM86.592 19.0353V13.5398L86.1924 13.8319V19.2211L88.1371 20.7875L88.4302 20.4423L86.592 19.0353ZM87.9506 22.9113C87.3113 22.9113 86.7252 23.0971 86.1658 23.4688V23.4954C86.5121 23.3626 86.9117 23.1768 87.5777 23.1768C88.1904 23.1768 88.6966 23.4954 89.2027 24.0794L89.6023 23.7609C89.0962 23.2564 88.5101 22.9113 87.9506 22.9113ZM90.3482 21.0529C89.8687 20.7344 89.7355 20.4158 89.7355 19.5662V19.2211L86.4854 22.9644L86.5121 22.991C87.1248 22.6193 87.7109 22.3538 88.6166 22.3538C89.3892 22.3538 89.922 22.6724 90.5347 23.1768C90.9077 22.8582 91.1474 22.5662 91.1474 22.0618C91.1474 21.6636 90.8278 21.3715 90.3482 21.0529ZM89.7355 13.646L88.1105 12.3717L88.0838 12.3983V18.3716L89.3359 19.3539L89.7355 18.876V13.646ZM90.9077 20.7875C90.4015 20.3892 90.3482 20.0707 90.3482 19.2211V13.3009L88.6966 11.9735L88.3236 12.239L89.922 13.5133V19.5132C89.922 20.3361 89.9486 20.5751 90.4814 20.9202C90.961 21.2388 91.3073 21.5574 91.3073 22.0087C91.3073 22.1149 91.2806 22.3273 91.2806 22.3273L91.3073 22.3538C91.4138 22.2476 91.5204 22.0883 91.5204 21.8494C91.5737 21.3981 91.3606 21.106 90.9077 20.7875ZM95.5963 20.9202L93.8114 19.5132L93.4385 19.9114L93.2786 19.7521L93.7049 19.2742V12.4779H92.586L92.5594 12.4513L93.252 11.4425H93.7315V10.1417L95.8094 7.93816L95.8361 7.96471V11.416H97.4078L97.4345 11.4425L96.7418 12.4513H95.8361V18.345L96.9017 19.168L97.3013 18.7167L97.4611 18.876L95.5963 20.9202ZM94.3442 9.79653L93.9446 10.2479V11.4425H94.3442V9.79653ZM94.3442 19.1149V12.5044H93.9446V19.3539L95.5963 20.6282L95.8894 20.3096L94.3442 19.1149ZM103.828 13.062V18.5043L100.525 20.9468L98.0472 19.0884L97.7542 19.407L97.5943 19.2477L97.9406 18.8494V13.5133L101.404 11.0443L103.695 12.823L104.068 12.4248L104.228 12.5841L103.828 13.062ZM98.58 18.6636V13.354L98.1804 13.646V18.876L100.525 20.6547L100.898 20.3892L98.58 18.6636ZM101.724 13.6991L100.072 12.4248L100.045 12.4513V18.2388L101.697 19.4866L101.724 13.6991ZM102.363 13.354L100.551 11.9469L100.178 12.2124L101.963 13.5664V19.6193L102.363 19.3008V13.354ZM111.287 20.9202L109.582 19.3804V13.6991L108.543 12.7699L107.984 13.354V18.6105L108.597 19.168V19.2477L106.998 20.9202L105.187 19.2742V19.2211L105.879 18.4778V13.5664L104.974 12.7434L104.601 13.1416L104.441 12.9823L106.226 11.0443L108.011 12.6106V13.0089L109.875 11.0443L111.607 12.6106L112.007 12.2124L112.193 12.3717L111.714 12.8496V18.3981L112.593 19.2211L113.019 18.7433L113.179 18.9025L111.287 20.9202ZM106.146 19.2211V19.1946C106.146 19.2211 106.545 18.7964 106.545 18.7964V13.2743L105.426 12.2655L105.16 12.5575L106.146 13.4602V18.584L105.533 19.1946V19.2211L107.025 20.5751L107.345 20.2565L106.146 19.2211ZM110.222 19.0618V13.354L109.023 12.2655L108.703 12.6106L109.822 13.5929V19.2477L111.287 20.6016L111.607 20.283L110.222 19.0618ZM123.355 20.9202C122.796 20.3361 122.609 20.1503 121.97 19.9645V23.7609L121.943 23.7874L121.171 23.0972L118.906 25.1679L118.88 25.1414V19.9114C118.187 20.0707 117.468 20.4158 116.775 21.106H116.695C116.828 19.6193 117.574 18.5043 118.853 18.0796V14.2832H118.453C117.894 14.2832 117.574 14.5752 117.308 15.1062H117.228C117.175 14.9203 117.121 14.6548 117.121 14.2035C117.121 13.3805 117.734 12.531 118.72 12.531H118.826V10.4337L118.027 9.71689L117.628 10.1151L117.494 9.98237L119.466 7.91162L121.304 9.58415V11.3629L121.73 10.885V8.62842H121.943V10.6726L124.527 7.88507L126.738 9.87618V18.345L123.355 20.9202ZM118.826 19.1946C118.027 19.3539 117.468 19.8317 117.095 20.4689L117.121 20.4954C117.681 20.0176 118.187 19.8052 118.826 19.6724V19.1946ZM119.466 13.6195H118.4C117.654 13.6195 117.361 14.0973 117.335 14.6283L117.361 14.6548C117.601 14.2566 117.841 14.1239 118.294 14.0708H119.066V24.6635L119.466 24.2653V13.6195ZM119.466 10.1151L118.48 9.21247L118.16 9.53105L119.04 10.3009V12.5044H119.439L119.466 10.1151ZM121.757 11.2301L121.331 11.6815V22.9379L121.757 23.3361V11.2301ZM124.314 10.7788L123.169 9.71689L121.97 10.9912V17.8406C122.982 17.9468 123.675 18.2388 124.288 18.9025L124.314 18.876V10.7788ZM121.97 19.1946V19.699C122.636 19.8583 122.902 20.0441 123.382 20.6016L123.835 20.2565C123.355 19.6724 122.876 19.3273 121.97 19.1946ZM124.927 10.4602L123.595 9.23902L123.275 9.5576L124.501 10.6726V19.7255L124.9 19.407V10.4602H124.927ZM133.558 13.062V18.5043L130.255 20.9468L127.777 19.0884L127.484 19.407L127.351 19.2477L127.698 18.8494V13.5133L131.161 11.0443L133.452 12.823L133.825 12.4248L133.985 12.5841L133.558 13.062ZM128.31 18.6636V13.354L127.911 13.646V18.876L130.255 20.6547L130.628 20.3892L128.31 18.6636ZM131.454 13.6991L129.802 12.4248L129.775 12.4513V18.2388L131.427 19.4866L131.454 13.6991ZM132.093 13.354L130.282 11.9469L129.909 12.2124L131.694 13.5664V19.6193L132.093 19.3008V13.354ZM138.087 14.5752H140.085V18.7433L136.995 20.9202C136.595 20.4423 136.009 20.1238 135.29 20.1238C134.704 20.1238 134.224 20.3096 133.612 20.8406L133.505 20.814L136.169 16.9645H134.517V13.354L137.767 11.0974C138.167 11.416 138.46 11.5753 138.966 11.5753C139.366 11.5753 139.925 11.4956 140.352 11.1505L140.431 11.177L138.087 14.5752ZM135.903 19.5397C135.343 19.5397 134.89 19.7255 134.491 20.0176V20.0441C134.81 19.9114 135.103 19.8583 135.396 19.8583C135.849 19.8583 136.542 20.0707 137.022 20.6282L137.474 20.3096C137.128 19.8848 136.675 19.5397 135.903 19.5397ZM138.007 16.2743H136.915L134.624 19.5662L134.651 19.5928C135.21 19.1946 135.769 18.9025 136.435 18.9025C137.022 18.9025 137.634 19.168 138.007 19.6459L138.034 19.6193L138.007 16.2743ZM135.157 16.2743V13.1416L134.757 13.4336V16.699H136.329L136.649 16.2743H135.157ZM139.233 12.4779C138.833 12.7699 138.593 12.9292 137.901 12.9292C137.501 12.9292 137.048 12.7434 136.675 12.3717L136.649 12.3983V15.2389H137.394L139.233 12.4779ZM138.3 12.2921C137.954 12.2921 137.501 12.1062 137.208 11.7345L136.728 12.0531C137.101 12.5044 137.448 12.6903 138.007 12.6903C138.354 12.6903 138.86 12.5841 139.392 12.1328L139.419 12.0797C139.046 12.239 138.647 12.2921 138.3 12.2921ZM138.62 15.6371H137.341L137.048 16.0353H138.194V19.8052L138.593 19.5132L138.62 15.6371ZM143.335 20.9202L141.55 19.5132L141.177 19.9114L141.018 19.7521L141.444 19.2742V12.4779H140.325L140.298 12.4513L140.991 11.4425H141.47V10.1417L143.548 7.93816L143.575 7.96471V11.416H145.147L145.173 11.4425L144.481 12.4513H143.575V18.345L144.641 19.168L145.04 18.7167L145.2 18.876L143.335 20.9202ZM142.083 9.79653L141.684 10.2479V11.4425H142.083V9.79653ZM142.083 19.1149V12.5044H141.684V19.3539L143.335 20.6282L143.628 20.3096L142.083 19.1149Z" fill="white"/>
</svg>
